<?xml version="1.0" standalone="no"?>
<!DOCTYPE svg PUBLIC "-//W3C//DTD SVG 20010904//EN"
 "http://www.w3.org/TR/2001/REC-SVG-20010904/DTD/svg10.dtd">
<svg version="1.0" xmlns="http://www.w3.org/2000/svg"
 width="1024.000000pt" height="1024.000000pt" viewBox="0 0 1024.000000 1024.000000"
 preserveAspectRatio="xMidYMid meet">

<g transform="translate(0.000000,1024.000000) scale(0.100000,-0.100000)"
fill="#000000" stroke="none">
<path d="M7855 8906 c-5 -2 -41 -13 -80 -24 -93 -27 -300 -90 -350 -107 -22
-7 -60 -18 -85 -25 -25 -7 -56 -16 -70 -20 -44 -13 -158 -47 -445 -131 -154
-45 -347 -102 -430 -126 -82 -25 -163 -49 -180 -53 -16 -5 -106 -32 -200 -60
-93 -28 -197 -58 -230 -67 -33 -9 -98 -28 -145 -43 -47 -15 -150 -46 -230 -70
-80 -23 -167 -50 -195 -60 -27 -10 -65 -22 -84 -26 -19 -3 -82 -22 -140 -41
-102 -33 -346 -107 -591 -179 -63 -19 -149 -45 -190 -58 -41 -13 -145 -44
-230 -69 -85 -25 -195 -58 -245 -72 -49 -15 -153 -45 -230 -66 -77 -22 -149
-43 -160 -48 -11 -5 -69 -21 -130 -36 -60 -15 -132 -35 -160 -45 -27 -10 -90
-30 -140 -45 -49 -15 -103 -31 -120 -36 -30 -9 -123 -35 -370 -104 -218 -61
-378 -117 -418 -146 -45 -32 -89 -90 -106 -138 -22 -65 -14 -187 20 -296 31
-99 66 -238 95 -367 8 -38 35 -148 60 -245 25 -98 47 -185 49 -193 35 -154 52
-194 102 -242 25 -23 92 -59 132 -70 12 -3 14 -208 13 -1328 -1 -1488 -2
-1481 69 -1638 16 -35 29 -65 29 -67 0 -3 25 -43 55 -90 77 -119 189 -226 317
-301 106 -63 230 -114 279 -114 15 0 31 -4 34 -10 8 -13 4153 -14 4204 -1 20
5 68 17 106 27 39 9 75 20 80 23 6 4 28 13 49 20 110 38 296 188 383 311 56
78 103 185 131 295 29 115 32 239 32 1532 0 1045 3 1323 13 1330 6 5 28 16 47
23 50 20 93 54 126 102 l29 41 3 348 c2 227 0 361 -7 387 -16 56 -89 134 -148
158 -47 18 -100 19 -1748 19 -1163 -1 -1749 -4 -1854 -12 -148 -11 -211 -6
-211 17 0 16 44 40 72 40 15 0 30 5 33 10 3 6 19 10 35 10 16 0 32 5 35 10 3
6 17 10 29 10 13 0 37 7 52 15 16 8 39 15 51 15 12 0 35 5 50 11 15 6 37 15
48 19 11 5 31 11 45 14 14 3 50 12 80 21 30 9 71 21 90 26 19 6 49 14 65 19
17 5 62 18 100 28 39 11 81 24 95 30 14 5 57 18 95 30 39 11 117 34 175 51
103 31 132 39 280 81 97 27 118 33 220 65 47 15 110 33 140 41 85 22 163 45
185 54 11 5 74 23 140 40 66 18 158 45 205 60 47 15 105 33 130 39 25 7 59 16
75 21 17 5 73 21 125 35 52 14 120 34 150 45 30 10 87 26 125 35 39 9 122 33
185 52 261 79 308 93 375 109 39 9 95 24 125 34 30 9 75 23 100 30 142 39 211
84 252 164 32 63 29 179 -11 326 -65 245 -89 336 -95 374 -19 102 -94 210
-176 252 -32 16 -186 31 -215 20z m-50 -391 c59 -47 145 -113 190 -147 l83
-63 32 -115 c29 -102 31 -117 19 -139 -8 -13 -25 -28 -39 -32 -14 -4 -81 -23
-150 -43 -69 -20 -158 -45 -199 -57 -41 -11 -82 -22 -92 -24 -11 -2 -53 -15
-96 -30 -86 -29 -81 -30 -169 46 -56 48 -462 373 -533 426 -28 20 -12 27 214
90 28 8 59 16 70 18 19 5 91 25 395 114 74 22 142 40 152 40 9 1 64 -37 123
-84z m-1382 -477 c96 -79 238 -192 315 -253 77 -60 141 -113 141 -117 1 -4
-25 -15 -56 -24 -32 -9 -94 -27 -138 -41 -70 -22 -363 -108 -405 -119 -8 -2
-68 -19 -133 -39 l-119 -35 -91 78 c-90 76 -395 323 -485 392 -25 19 -46 39
-46 44 -1 8 141 53 459 143 88 25 207 60 265 78 58 18 108 34 112 34 3 1 85
-63 181 -141z m-1551 -340 c190 -154 413 -331 486 -387 46 -35 80 -67 75 -71
-4 -4 -35 -15 -68 -25 -33 -9 -107 -32 -165 -50 -189 -59 -284 -88 -365 -111
-157 -45 -213 -62 -234 -74 -18 -9 -26 -8 -45 7 -143 111 -616 496 -616 501 0
7 45 22 175 57 28 8 75 21 105 30 30 9 69 20 85 25 142 39 490 142 494 145 6
7 3 9 73 -47z m-1302 -548 c107 -86 227 -183 266 -216 71 -58 132 -108 163
-131 9 -6 14 -13 11 -15 -5 -4 -121 -39 -195 -60 -22 -6 -59 -17 -82 -25 -23
-8 -46 -12 -52 -8 -6 3 -37 38 -69 78 -66 82 -63 78 -204 268 -121 163 -114
153 -151 197 -30 37 -27 57 7 49 11 -3 37 2 56 12 19 10 40 15 45 12 6 -3 98
-75 205 -161z m-574 107 c20 -11 555 -716 632 -831 39 -59 39 -71 4 -117 -15
-20 -63 -84 -107 -142 -44 -58 -96 -127 -115 -154 -19 -26 -53 -71 -75 -100
l-40 -52 -463 0 -462 -1 -10 26 c-13 34 -13 37 5 30 19 -7 15 17 -5 26 -8 4
191 5 443 1 322 -4 457 -3 457 5 0 6 6 17 13 24 7 7 45 58 84 113 39 55 98
136 132 180 33 43 61 84 61 90 0 5 -60 89 -133 186 -72 96 -206 273 -295 392
-104 138 -170 217 -181 217 -10 0 -71 -16 -137 -35 -65 -19 -128 -37 -139 -40
-11 -2 -36 -9 -55 -16 -55 -18 -109 -35 -190 -59 -41 -12 -102 -31 -134 -41
-33 -10 -65 -19 -73 -19 -7 0 -18 -12 -23 -26 -10 -25 5 -95 61 -284 6 -19 9
-55 7 -80 -3 -39 -6 -45 -27 -48 -13 -2 -27 0 -32 5 -10 10 -34 99 -42 153 -3
19 -19 88 -36 152 -37 139 -37 148 -11 181 22 28 86 51 375 137 94 28 231 69
305 91 74 22 137 42 139 45 8 8 46 3 67 -9z m-179 -573 c121 -70 139 -248 37
-350 -73 -74 -190 -82 -281 -21 -103 70 -130 213 -59 309 24 33 83 76 122 88
46 15 134 2 181 -26z m2417 -266 c-8 -14 -74 -109 -313 -450 l-153 -218 -459
0 c-374 0 -459 2 -452 13 4 7 113 160 242 340 l234 327 454 0 c360 0 453 -3
447 -12z m1523 -2 c-3 -8 -39 -61 -80 -118 -40 -56 -112 -159 -160 -228 -47
-69 -116 -169 -154 -222 l-68 -98 -452 0 c-249 0 -453 2 -453 5 0 2 64 91 143
198 78 106 187 257 242 335 l100 141 444 1 c377 0 442 -2 438 -14z m1363 -138
l0 -153 -133 -187 -132 -187 -467 0 c-258 -1 -468 1 -468 4 0 3 20 31 44 62
23 32 103 144 176 248 74 105 163 229 198 278 l64 87 359 0 359 0 0 -152z
m-5067 -945 c-23 -2 -64 -2 -90 0 -26 2 -7 3 42 3 50 0 71 -1 48 -3z m1027 0
c-77 -3 -101 -7 -90 -14 12 -8 10 -9 -5 -2 -11 4 -202 10 -425 13 l-405 5 515
1 c283 0 468 -2 410 -3z m2468 0 c-53 -2 -143 -2 -200 0 -57 1 -13 3 97 3 110
0 156 -2 103 -3z m-1068 -29 c289 -30 596 -195 818 -439 215 -236 323 -480
363 -820 18 -150 -14 -388 -72 -545 -64 -171 -196 -391 -309 -513 -83 -90
-240 -207 -353 -264 -87 -43 -250 -107 -299 -117 -13 -3 -66 -14 -118 -25
-226 -49 -539 -13 -784 91 -403 171 -700 544 -802 1008 -36 164 -38 393 -4
545 69 312 222 561 487 797 138 123 482 266 692 288 84 8 270 6 381 -6z
m-2247 -1 c-13 -2 -35 -2 -50 0 -16 2 -5 4 22 4 28 0 40 -2 28 -4z m3335 0
c-43 -2 -113 -2 -155 0 -43 1 -8 3 77 3 85 0 120 -2 78 -3z m230 0 c-10 -2
-28 -2 -40 0 -13 2 -5 4 17 4 22 1 32 -1 23 -4z m-3610 -280 c-32 -2 -86 -2
-120 0 -35 2 -9 3 57 3 66 0 94 -1 63 -3z m4320 0 c-43 -2 -113 -2 -155 0 -43
1 -8 3 77 3 85 0 120 -2 78 -3z m-72 -21 c-88 -1 -163 1 -167 5 -5 5 67 6 159
3 l167 -5 -159 -3z m-4248 1 c-32 -2 -84 -2 -115 0 -32 2 -6 3 57 3 63 0 89
-1 58 -3z m-132 -466 c4 -4 0 -7 -9 -7 -9 0 -18 4 -21 9 -7 10 20 9 30 -2z
m512 6 c-43 -2 -113 -2 -155 0 -43 1 -8 3 77 3 85 0 120 -2 78 -3z m3810 0
c-86 -2 -230 -2 -320 0 -90 1 -19 3 157 3 176 0 249 -2 163 -3z m-3995 -21
c158 1 290 -2 294 -5 3 -4 -129 -7 -295 -7 -273 0 -325 4 -305 24 4 3 9 2 13
-3 3 -7 115 -10 293 -9z m3895 -9 c-71 -2 -185 -2 -255 0 -71 1 -13 3 127 3
140 0 198 -2 128 -3z m-3629 -687 c-2 -2 -128 -6 -279 -7 -151 -1 -279 -5
-285 -8 -5 -3 107 -8 250 -11 l260 -6 -282 -2 c-264 -2 -283 -1 -283 16 0 13
-2 14 -9 3 -7 -10 -13 -11 -30 -2 -11 7 -21 14 -21 16 0 2 154 4 342 5 188 0
340 -2 337 -4z m3694 -3 c-79 -2 -207 -2 -285 0 -79 1 -15 3 142 3 157 0 221
-2 143 -3z m0 -30 c-62 -2 -165 -2 -230 0 -65 1 -14 3 112 3 127 0 180 -2 118
-3z m-3685 -460 c-110 -4 -132 -20 -35 -26 34 -2 -68 -4 -227 -5 -159 -1 -287
0 -284 4 3 3 33 5 67 6 93 1 62 12 -52 19 -56 3 62 5 263 5 201 0 321 -2 268
-3z m3671 3 c-9 -9 -428 -15 -484 -7 -43 6 19 9 214 10 151 0 272 -1 270 -3z
m134 -3 c-13 -2 -33 -2 -45 0 -13 2 -3 4 22 4 25 0 35 -2 23 -4z m-4363 -25
c0 -11 -28 -10 -35 1 -3 6 4 9 15 8 11 -1 20 -5 20 -9z m4150 -2 c19 -1 -71
-3 -200 -4 -129 -1 -230 2 -223 6 10 6 342 5 423 -2z m-407 -703 c-62 -2 -165
-2 -230 0 -65 1 -14 3 112 3 127 0 180 -2 118 -3z m-2667 -36 c4 -4 -8 -7 -27
-7 -23 0 -30 3 -20 9 15 10 37 9 47 -2z"/>
<path d="M3013 5923 c15 -2 37 -2 50 0 12 2 0 4 -28 4 -27 0 -38 -2 -22 -4z"/>
<path d="M5135 5094 c-163 -24 -384 -104 -504 -183 -29 -20 -65 -44 -80 -53
-73 -49 -211 -207 -280 -322 -62 -105 -123 -273 -137 -381 -3 -22 -7 -46 -10
-54 -9 -28 -4 -328 7 -385 15 -85 84 -292 116 -351 152 -283 446 -507 760
-579 299 -68 721 11 933 174 19 15 42 31 52 36 9 5 49 41 90 79 211 201 315
414 351 715 12 97 8 302 -6 355 -3 11 -12 50 -21 86 -76 326 -329 625 -645
764 -155 68 -279 95 -461 100 -74 2 -148 1 -165 -1z m-140 -522 c72 -44 299
-179 505 -302 537 -321 494 -290 487 -347 -6 -53 -22 -73 -96 -114 -31 -18
-72 -41 -91 -52 -19 -11 -89 -50 -155 -87 -406 -225 -525 -292 -651 -367 -80
-47 -151 -83 -166 -83 -17 0 -34 10 -48 28 l-22 27 4 662 3 661 24 26 c14 15
35 26 51 26 15 0 81 -33 155 -78z"/>
<path d="M3285 3320 c-4 -6 14 -10 47 -9 42 1 48 3 28 9 -36 12 -68 12 -75 0z"/>
<path d="M3458 3313 c12 -2 32 -2 45 0 12 2 2 4 -23 4 -25 0 -35 -2 -22 -4z"/>
</g>
</svg>
